<svg xmlns="http://www.w3.org/2000/svg" version="1.0" width="500.000000pt" height="500.000000pt" viewBox="0 0 500.000000 500.000000" preserveAspectRatio="xMidYMid meet">

<g transform="translate(0.000000,500.000000) scale(0.100000,-0.100000)" fill="#ffffff" stroke="none">
<path d="M1698 3713 c43 -21 68 -54 89 -117 14 -43 17 -108 21 -393 l4 -342 -74 -37 c-208 -104 -388 -298 -469 -507 -54 -140 -71 -250 -66 -417 5 -171 21 -238 83 -365 107 -218 286 -378 537 -481 350 -142 670 -140 1622 11 454 72 605 92 825 106 231 14 472 5 688 -27 l42 -6 0 80 0 80 -62 11 c-211 36 -463 37 -718 1 -176 -25 -311 -53 -730 -155 -190 -46 -430 -100 -535 -119 -487 -89 -845 -66 -1130 74 -271 132 -440 353 -485 633 -16 95 -9 279 15 392 42 204 114 360 219 472 63 67 202 173 228 173 6 0 8 -176 6 -452 -4 -395 -6 -459 -21 -503 -20 -58 -41 -86 -88 -114 l-34 -21 263 0 c173 0 261 3 257 10 -3 6 -12 10 -20 10 -24 0 -73 68 -89 123 -14 47 -16 127 -16 546 l0 490 38 8 c20 4 109 8 197 8 131 -1 176 -5 249 -23 137 -34 289 -115 420 -222 l55 -45 1 -345 c0 -278 -3 -357 -15 -404 -19 -72 -45 -110 -93 -136 l-37 -19 270 0 270 -1 -35 21 c-47 27 -76 71 -95 146 -14 54 -15 160 -13 885 3 761 4 826 21 868 21 53 51 88 92 106 26 11 -7 13 -240 13 -236 0 -266 -1 -239 -13 44 -19 81 -72 99 -141 12 -49 15 -135 15 -497 l0 -437 -86 69 c-125 100 -292 175 -469 211 -68 14 -298 18 -362 6 l-43 -7 0 308 c0 382 9 425 98 479 l37 23 -265 0 c-251 0 -263 -1 -232 -17z" fill="#ffffff"/>
</g>
</svg>